<?xml version="1.0" encoding="utf-8"?>
<!-- Generator: Adobe Illustrator 28.3.0, SVG Export Plug-In . SVG Version: 6.00 Build 0)  -->
<svg version="1.1" id="Layer_1" xmlns="http://www.w3.org/2000/svg" xmlns:xlink="http://www.w3.org/1999/xlink" x="0px" y="0px"
	 viewBox="0 0 32 24" style="enable-background:new 0 0 32 24;" xml:space="preserve">
<style type="text/css">
	.st0{fill:#FCC6E9;}
	.st1{fill:#69FFAD;}
	.st2{fill:#001A64;}
</style>
<g>
	<path class="st0" d="M30.4,2.1V12h-3.6c-1.3,0-2.6-0.5-3.6-1.5c-0.9-0.9-1.5-2.2-1.5-3.5v-5H30.4z"/>
	<path class="st1" d="M30.4,12v9.9h-8.6v-5c0-0.7,0.1-1.3,0.4-1.9c0.3-0.6,0.6-1.2,1.1-1.6c0.5-0.5,1-0.8,1.6-1.1
		c0.6-0.2,1.3-0.4,1.9-0.4H30.4z"/>
	<path class="st2" d="M20.3,13.5c0.4,0.4,0.8,0.9,1,1.5c-0.7,2.3-2.2,4.2-4.3,5.5c-2,1.3-4.5,1.8-6.8,1.4c-2.4-0.4-4.6-1.5-6.1-3.3
		c-1.6-1.8-2.4-4.1-2.4-6.5s0.9-4.7,2.4-6.5c1.6-1.8,3.7-3,6.1-3.3C12.6,1.8,15,2.3,17,3.6c2,1.3,3.5,3.2,4.3,5.5
		c-0.4,0.9-1,1.6-1.9,2.1c-0.8,0.5-1.8,0.8-2.7,0.8c0.7,0,1.3,0.1,1.9,0.4C19.3,12.6,19.8,13,20.3,13.5z"/>
</g>
</svg>
